<svg width="24" height="24" viewBox="0 0 24 24" fill="none" xmlns="http://www.w3.org/2000/svg">
<path d="M22.5011 12.2332C22.5011 11.3699 22.4296 10.7399 22.2749 10.0865H12.2154V13.9832H18.1201C18.0011 14.9515 17.3582 16.4099 15.9296 17.3898L15.9096 17.5203L19.0903 19.935L19.3106 19.9565C21.3344 18.1249 22.5011 15.4298 22.5011 12.2332" fill="#4285F4"/>
<path d="M12.2147 22.5C15.1075 22.5 17.536 21.5666 19.3099 19.9566L15.9289 17.3898C15.0242 18.0082 13.8099 18.4399 12.2147 18.4399C9.38139 18.4399 6.97666 16.6082 6.11944 14.0765L5.99379 14.087L2.68653 16.5954L2.64328 16.7132C4.40516 20.1432 8.0242 22.5 12.2147 22.5Z" fill="#34A853"/>
<path d="M6.12005 14.0767C5.89386 13.4234 5.76296 12.7233 5.76296 12C5.76296 11.2767 5.89386 10.5767 6.10815 9.92337L6.10216 9.78423L2.75345 7.2356L2.64388 7.28667C1.91772 8.71002 1.50105 10.3084 1.50105 12C1.50105 13.6917 1.91772 15.29 2.64388 16.7133L6.12005 14.0767" fill="#FBBC05"/>
<path d="M12.2147 5.55997C14.2266 5.55997 15.5837 6.41163 16.3576 7.12335L19.3814 4.23C17.5243 2.53834 15.1076 1.5 12.2147 1.5C8.02423 1.5 4.40517 3.85665 2.64328 7.28662L6.10756 9.92332C6.97668 7.39166 9.38143 5.55997 12.2147 5.55997" fill="#EB4335"/>
</svg>
